<svg xmlns="http://www.w3.org/2000/svg" width="19.665" height="19.11" viewBox="0 0 19.665 19.11">
    <defs>
        <style>
            .cls-1{fill:#616161}
        </style>
    </defs>
    <g id="add-user" transform="translate(.001)">
        <path id="Path_712" d="M12.163 9.679a5.605 5.605 0 1 0-7.7 0A8.319 8.319 0 0 0 0 17.051v1.477a.582.582 0 0 0 .582.582h15.464a.582.582 0 0 0 .582-.582v-1.477a8.319 8.319 0 0 0-4.465-7.372zm3.3 8.268H1.162v-.9a7.19 7.19 0 0 1 4.62-6.69.582.582 0 0 0 .111-1.031 4.442 4.442 0 1 1 4.839 0 .582.582 0 0 0 .111 1.031 7.19 7.19 0 0 1 4.62 6.69zm0 0" class="cls-1" data-name="Path 712"/>
        <path id="Path_713" d="M171.134 163.868a1.207 1.207 0 0 1-1.7 0 .582.582 0 0 0-.822.822 2.371 2.371 0 0 0 3.35 0 .582.582 0 1 0-.822-.822zm0 0" class="cls-1" data-name="Path 713" transform="translate(-161.968 -157.41)"/>
        <path id="Path_714" d="M403.8 116.06h-.986v-.986a.582.582 0 1 0-1.163 0v.986h-.986a.582.582 0 0 0 0 1.163h.986v.986a.582.582 0 0 0 1.163 0v-.986h.986a.582.582 0 0 0 0-1.163zm0 0" class="cls-1" data-name="Path 714" transform="translate(-384.72 -110.095)"/>
    </g>
</svg>
