<svg xmlns="http://www.w3.org/2000/svg" width="16.991" height="17" viewBox="0 0 16.991 17">
    <defs>
        <style>
            .cls-1{fill:#616161}
        </style>
    </defs>
    <g id="chart_1_" data-name="chart (1)" transform="translate(-.129)">
        <path id="Path_705" d="M16.587 15.933H1.2V.533a.533.533 0 0 0-1.067 0v15.934A.533.533 0 0 0 .662 17h15.925a.533.533 0 1 0 0-1.067z" class="cls-1" data-name="Path 705"/>
        <path id="Path_706" d="M71.518 141.325h.782v2.418a.567.567 0 1 0 1.129 0v-2.418h.786a.591.591 0 0 0 .565-.615v-4.929a.591.591 0 0 0-.565-.615h-.786v-2.456a.567.567 0 1 0-1.129 0v2.456h-.786a.591.591 0 0 0-.565.615v4.929a.591.591 0 0 0 .569.615zm.565-4.929h1.572v3.7h-1.573z" class="cls-1" data-name="Path 706" transform="translate(-68.12 -129.427)"/>
        <path id="Path_707" d="M217.07 8.476h.786V10.7a.565.565 0 0 0 1.129 0V8.476h.786a.565.565 0 0 0 .565-.565V3.385a.565.565 0 0 0-.565-.565h-.786V.565a.565.565 0 0 0-1.129 0V2.82h-.786a.565.565 0 0 0-.565.565v4.526a.565.565 0 0 0 .565.565zm.565-4.527h1.572v3.4h-1.572z" class="cls-1" data-name="Path 707" transform="translate(-209.276)"/>
        <path id="Path_708" d="M362.622 103.228h.786v2.025a.567.567 0 0 0 1.129 0v-2.025h.786a.541.541 0 0 0 .565-.515v-4.128a.541.541 0 0 0-.565-.515h-.786v-2.057a.567.567 0 0 0-1.129 0v2.057h-.786a.541.541 0 0 0-.565.515v4.128a.541.541 0 0 0 .565.515zm.565-4.128h1.572v3.1h-1.572z" class="cls-1" data-name="Path 708" transform="translate(-350.151 -92.129)"/>
    </g>
</svg>
