<svg xmlns="http://www.w3.org/2000/svg" width="15.999" height="15.999" viewBox="0 0 15.999 15.999">
    <defs>
        <style>
            .cls-1{fill:#bcbccb}
        </style>
    </defs>
    <path id="Chat_Icon" d="M-1234.693.89A7.944 7.944 0 0 1-1236 1a7.286 7.286 0 0 1-3.8-1.021c.1 0 .2.021.305.021 4.16 0 7.624-2.652 8.353-6.139A3.788 3.788 0 0 1-1230-3.5a3.739 3.739 0 0 1-1.012 2.5h.012v4zM-1245-4.578a4.872 4.872 0 0 1-1-2.921c0-3.038 2.91-5.5 6.5-5.5s6.5 2.462 6.5 5.5-2.91 5.5-6.5 5.5a7.454 7.454 0 0 1-2.8-.542L-1245-1z" class="cls-1" data-name="Chat Icon" transform="translate(1246 13)"/>
</svg>
