<svg xmlns="http://www.w3.org/2000/svg" width="18.028" height="18.029" viewBox="0 0 18.028 18.029">
    <defs>
        <style>
            .cls-1{fill:#616161}
        </style>
    </defs>
    <path id="filter" d="M17.824 0H1.2a.7.7 0 0 0-.7.7 6.878 6.878 0 0 0 2.307 5.141l3.084 2.741a2.509 2.509 0 0 1 .842 1.874v6.867a.7.7 0 0 0 1.095.586l4.155-2.77a.7.7 0 0 0 .314-.586v-4.1a2.509 2.509 0 0 1 .842-1.874l3.084-2.741A6.878 6.878 0 0 0 18.528.7a.7.7 0 0 0-.7-.7zm-2.539 4.788L12.2 7.529a3.919 3.919 0 0 0-1.314 2.927v3.721l-2.745 1.831v-5.552a3.919 3.919 0 0 0-1.315-2.927L3.742 4.788a5.47 5.47 0 0 1-1.788-3.38h15.12a5.469 5.469 0 0 1-1.788 3.38zm0 0" class="cls-1" transform="translate(-.5)"/>
</svg>
