<svg xmlns="http://www.w3.org/2000/svg" width="18.902" height="17.425" viewBox="0 0 18.902 17.425">
    <defs>
        <style>
            .cls-1{fill:#616161}
        </style>
    </defs>
    <g id="Group_272" data-name="Group 272" transform="translate(-24.549 -512)">
        <path id="Path_647" d="M60.952 113.652a.554.554 0 0 0 .554-.554v-2.768a3.326 3.326 0 0 0-1.835-2.97 1.846 1.846 0 1 0-2.977 0 3.292 3.292 0 0 0-.422.253 3.345 3.345 0 0 0-.968-.773 2.03 2.03 0 1 0-3.1 0 3.345 3.345 0 0 0-.968.773 3.3 3.3 0 0 0-.423-.253 1.846 1.846 0 1 0-2.976 0A3.326 3.326 0 0 0 46 110.33v2.77a.554.554 0 0 0 .554.554h3.876v.554a.554.554 0 0 0 .554.554h5.538a.554.554 0 0 0 .554-.554v-.554zm-3.507-7.384a.738.738 0 1 1 .738.738.739.739 0 0 1-.738-.737zm.738 1.846a2.218 2.218 0 0 1 2.217 2.216v2.215h-3.325v-2.769a3.305 3.305 0 0 0-.229-1.213 2.2 2.2 0 0 1 1.337-.448zm-5.353-2.584a.923.923 0 1 1 .923.923.924.924 0 0 1-.923-.923zm-4.246.738a.738.738 0 1 1 .738.738.739.739 0 0 1-.738-.737zm-1.477 6.276v-2.214a2.215 2.215 0 0 1 3.552-1.766 3.306 3.306 0 0 0-.229 1.212v2.769zm8.86 1.108h-4.43v-3.876a2.215 2.215 0 1 1 4.43 0z" class="cls-1" data-name="Path 647" transform="translate(-19.753 411.583)"/>
        <path id="Path_648" d="M394.913 371a.554.554 0 0 0-.554.554v2.806h-2.806a.554.554 0 1 0 0 1.108h3.36a.554.554 0 0 0 .554-.554v-3.36a.554.554 0 0 0-.554-.554z" class="cls-1" data-name="Path 648" transform="translate(-352.016 153.958)"/>
        <path id="Path_649" d="M3.913 374.36H1.108v-2.806a.554.554 0 1 0-1.108 0v3.36a.554.554 0 0 0 .554.554h3.36a.554.554 0 0 0 0-1.108z" class="cls-1" data-name="Path 649" transform="translate(24.549 153.958)"/>
        <path id="Path_650" d="M.554 24.467a.554.554 0 0 0 .554-.554v-2.805h2.805a.554.554 0 0 0 0-1.108H.554a.554.554 0 0 0-.554.554v3.36a.554.554 0 0 0 .554.553z" class="cls-1" data-name="Path 650" transform="translate(24.549 492)"/>
        <path id="Path_651" d="M393.95 20h-3.4a.554.554 0 1 0 0 1.108h2.85v2.806a.554.554 0 0 0 1.108 0v-3.36a.554.554 0 0 0-.558-.554z" class="cls-1" data-name="Path 651" transform="translate(-351.053 492)"/>
    </g>
</svg>
