<svg xmlns="http://www.w3.org/2000/svg" width="16" height="16" viewBox="0 0 16 16">
    <defs>
        <style>
            .cls-1{fill:#616161}
        </style>
    </defs>
    <g id="Group_324" data-name="Group 324" transform="translate(-26 -301)">
        <path id="XMLID_351_" d="M16 .714V.675.641c0-.011 0-.023-.005-.035s0-.024-.007-.036-.005-.021-.008-.032-.012-.024-.016-.038-.007-.019-.011-.03L15.94.436c-.004-.011-.011-.021-.016-.036l-.016-.03-.019-.028-.018-.029-.022-.029-.022-.028L15.8.231 15.777.2l-.01-.006-.014-.013-.03-.026L15.7.136l-.035-.021L15.634.1 15.6.08l-.029-.016-.032-.013-.034-.013-.034-.01-.034-.009L15.4.012l-.035-.006h-3.001a.727.727 0 1 0 0 1.455h1.245L9.192 6.224 7.3 4.334a.727.727 0 0 0-1.048.02L.194 10.893a.727.727 0 0 0 1.067.989L6.808 5.9 8.7 7.787a.727.727 0 0 0 1.048-.02l4.8-5.184v1.053a.727.727 0 0 0 1.455 0V.727L16 .714z" class="cls-1" transform="translate(26 301)"/>
        <path id="XMLID_352_" d="M15.273 300H.727a.727.727 0 0 0 0 1.455h14.546a.727.727 0 0 0 0-1.455z" class="cls-1" transform="translate(26 15.545)"/>
    </g>
</svg>
