<svg xmlns="http://www.w3.org/2000/svg" width="19.2" height="18" viewBox="0 0 19.2 18">
    <defs>
        <style>
            .cls-1{fill:#616161}
        </style>
    </defs>
    <g id="group" transform="translate(0 -16)">
        <g id="Group_344" data-name="Group 344" transform="translate(0 16)">
            <path id="Path_711" d="M16.014 20.87a2.812 2.812 0 1 0-3.825 0A5.061 5.061 0 0 0 9.6 23.239a5.061 5.061 0 0 0-2.589-2.366 2.813 2.813 0 1 0-3.825 0A5.071 5.071 0 0 0 0 25.563a.563.563 0 0 0 .563.563h6.281a2.81 2.81 0 0 0 .846 2.624 5.07 5.07 0 0 0-3.152 4.688A.563.563 0 0 0 5.1 34h9a.563.563 0 0 0 .563-.562 5.07 5.07 0 0 0-3.152-4.688 2.81 2.81 0 0 0 .846-2.624h6.282a.563.563 0 0 0 .563-.562 5.071 5.071 0 0 0-3.188-4.694zM14.1 17.129a1.688 1.688 0 1 1-1.687 1.688 1.689 1.689 0 0 1 1.687-1.688zm-2.812 9.563A1.688 1.688 0 1 1 9.6 25a1.689 1.689 0 0 1 1.688 1.691zM5.1 17.129a1.688 1.688 0 1 1-1.688 1.688A1.689 1.689 0 0 1 5.1 17.129zM7.352 25H1.165a3.963 3.963 0 0 1 7.557-.984 2.823 2.823 0 0 0-1.37.984zm6.148 7.879H5.7a3.938 3.938 0 0 1 7.795 0zM11.85 25a2.824 2.824 0 0 0-1.371-.984 3.963 3.963 0 0 1 7.556.984z" class="cls-1" data-name="Path 711" transform="translate(0 -16)"/>
        </g>
    </g>
</svg>
