<svg xmlns="http://www.w3.org/2000/svg" width="21.432" height="16.81" viewBox="0 0 21.432 16.81">
    <defs>
        <style>
            .cls-1{fill:#616161}
        </style>
    </defs>
    <g id="Group_270" data-name="Group 270" transform="translate(-23.338 -195.19)">
        <path id="Path_632" d="M.681 69.21a.681.681 0 0 0-.681.681V75.2a.681.681 0 1 0 1.362 0v-5.309a.681.681 0 0 0-.681-.681z" class="cls-1" data-name="Path 632" transform="translate(23.338 129.951)"/>
        <path id="Path_633" d="M35.038 25.459h-2.832a.681.681 0 0 0-.681.681v.615l-9.117 2.7a.681.681 0 0 0-.487.653v5.311a.679.679 0 0 0 .008.1v.019a.683.683 0 0 0 .02.084l1.93 6.163a.68.68 0 0 0 .853.446l2.81-.879a.681.681 0 0 0 .447-.853l-.956-3.056 4.489 1.332v.625a.681.681 0 0 0 .681.681h2.832a.681.681 0 0 0 .681-.681V26.14a.681.681 0 0 0-.678-.681zm-8.549 14.8l-1.511.472-1.345-4.294 1.829.543zm-.287-4.48h-.006l-2.913-.864v-4.3l8.242-2.444v9.186zm8.156 2.933h-1.472V26.821h1.471z" class="cls-1" data-name="Path 633" transform="translate(3.407 169.731)"/>
        <path id="Path_634" d="M185.584 132.492l-2.946-1.473a.681.681 0 1 0-.609 1.218l2.946 1.473a.681.681 0 1 0 .609-1.218z" class="cls-1" data-name="Path 634" transform="translate(-141.826 73.818)"/>
        <path id="Path_635" d="M182.335 52.616a.677.677 0 0 0 .3-.072l2.946-1.473a.681.681 0 1 0-.609-1.218l-2.946 1.473a.681.681 0 0 0 .3 1.29z" class="cls-1" data-name="Path 635" transform="translate(-141.826 147.617)"/>
        <path id="Path_636" d="M197.151 98.48h-2.46a.681.681 0 0 0 0 1.362h2.46a.681.681 0 0 0 0-1.362z" class="cls-1" data-name="Path 636" transform="translate(-153.061 103.338)"/>
    </g>
</svg>
