<svg xmlns="http://www.w3.org/2000/svg" width="16" height="16" viewBox="0 0 16 16">
    <defs>
        <style>
            .cls-1{fill:none}.cls-2{clip-path:url(#clip-path)}.cls-3{fill:#41b3c4}
        </style>
        <clipPath id="clip-path">
            <path d="M0 0h16v16H0z" class="cls-1"/>
        </clipPath>
    </defs>
    <g id="icon_dashboard" class="cls-2">
        <path id="Union_8" d="M-481-8a.945.945 0 0 1-1-1v-9a.945.945 0 0 1 1-1h2a.945.945 0 0 1 1 1v9a.945.945 0 0 1-1 1zm-6 0a.944.944 0 0 1-1-1v-14a.945.945 0 0 1 1-1h2a.945.945 0 0 1 1 1v14a.944.944 0 0 1-1 1zm-6 0a.945.945 0 0 1-1-1v-4a.945.945 0 0 1 1-1h2a.946.946 0 0 1 1 1v4a.945.945 0 0 1-1 1z" class="cls-3" data-name="Union 8" transform="translate(494 24)"/>
    </g>
</svg>
