<svg xmlns="http://www.w3.org/2000/svg" width="21" height="23" viewBox="0 0 21 23">
    <defs>
        <style>
            .cls-1{fill:#bcbccb}.cls-2{fill:#ffc06a;stroke:#fff;stroke-width:2px}.cls-3{stroke:none}.cls-4{fill:none}
        </style>
    </defs>
    <g id="Notification" transform="translate(-1395 -20)">
        <path id="Notification_Icon" d="M-1371 81h4a2.006 2.006 0 0 1-2 2 2.006 2.006 0 0 1-2-2zm-5-1a.945.945 0 0 1-1-1 .945.945 0 0 1 1-1h.5a4.354 4.354 0 0 0 1.5-3v-3a4.952 4.952 0 0 1 5-5 4.951 4.951 0 0 1 5 5v3a4.351 4.351 0 0 0 1.5 3h.5a.945.945 0 0 1 1 1 .945.945 0 0 1-1 1z" class="cls-1" data-name="Notification Icon" transform="translate(2772 -40)"/>
        <g id="Notification_Badge" class="cls-2" data-name="Notification Badge" transform="translate(1406 22)">
            <circle cx="4" cy="4" r="4" class="cls-3"/>
            <circle cx="4" cy="4" r="5" class="cls-4"/>
        </g>
    </g>
</svg>
