<svg xmlns="http://www.w3.org/2000/svg" width="15.314" height="20.634" viewBox="0 0 15.314 20.634">
    <defs>
        <style>
            .cls-1{fill:#616161}
        </style>
    </defs>
    <path id="Path_662" d="M15.123 3.83L11.484.191A.648.648 0 0 0 11.023 0H1.644A1.645 1.645 0 0 0 0 1.644V18.99a1.645 1.645 0 0 0 1.643 1.643h12.028a1.645 1.645 0 0 0 1.643-1.643V4.291a.648.648 0 0 0-.191-.461zm-3.475-1.766l1.6 1.6h-1.6zm2.023 17.361H1.644a.435.435 0 0 1-.434-.434V1.643a.435.435 0 0 1 .434-.434h8.795v2.633a1.035 1.035 0 0 0 1.033 1.033h2.633V18.99a.435.435 0 0 1-.434.434zm0 0" class="cls-1" data-name="Path 662"/>
</svg>
