<svg xmlns="http://www.w3.org/2000/svg" width="19.419" height="17.134" viewBox="0 0 19.419 17.134">
    <defs>
        <style>
            .cls-1{fill:#616161}
        </style>
    </defs>
    <path id="Path_661" d="M18.54 28.2h-1.318v-1.321a.88.88 0 0 0-.879-.879H.879a.88.88 0 0 0-.879.879v14.059a2.2 2.2 0 0 0 2.2 2.2h15.022a2.2 2.2 0 0 0 2.2-2.2V29.075a.88.88 0 0 0-.882-.875zm0 12.741a1.32 1.32 0 0 1-1.318 1.318H2.2a1.32 1.32 0 0 1-1.321-1.321V26.879h15.464v13.4a1.1 1.1 0 0 0 1.1 1.1.439.439 0 1 0 0-.879.22.22 0 0 1-.22-.22v-11.2h1.317z" class="cls-1" data-name="Path 661" transform="translate(0 -26)"/>
</svg>
