<svg xmlns="http://www.w3.org/2000/svg" width="16.891" height="16.619" viewBox="0 0 16.891 16.619">
    <defs>
        <style>
            .cls-1{fill:#616161}
        </style>
    </defs>
    <path id="Path_646" d="M5.455 8.893h3.03a4.221 4.221 0 1 0 0-1.094h-3.03a2.755 2.755 0 1 0-3.247 3.247v4.243a2.755 2.755 0 1 0 3.247 3.247h2.367a2.755 2.755 0 1 0 0-1.094H5.455A2.763 2.763 0 0 0 3.3 15.289v-4.243a2.763 2.763 0 0 0 2.155-2.153zm7.215-3.674a3.127 3.127 0 1 1-3.127 3.127 3.131 3.131 0 0 1 3.127-3.127zm-2.148 11.109a1.661 1.661 0 1 1-1.661 1.661 1.663 1.663 0 0 1 1.661-1.661zm-6.106 1.661a1.661 1.661 0 1 1-1.661-1.661 1.663 1.663 0 0 1 1.661 1.661zm-1.661-7.982a1.661 1.661 0 1 1 1.661-1.661 1.663 1.663 0 0 1-1.661 1.661z" class="cls-1" data-name="Path 646" transform="translate(0 -4.125)"/>
</svg>
