<svg xmlns="http://www.w3.org/2000/svg" width="16" height="16" viewBox="0 0 16 16">
    <defs>
        <style>
            .cls-1{fill:#616161}
        </style>
    </defs>
    <path id="puzzle" d="M14.906 0H1.094A1.1 1.1 0 0 0 0 1.094v13.812A1.1 1.1 0 0 0 1.094 16h13.812A1.1 1.1 0 0 0 16 14.906V1.094A1.1 1.1 0 0 0 14.906 0zm.156 1.094v6.437h-1.835a.779.779 0 0 0-.664 1.187.938.938 0 0 1-.835 1.429.944.944 0 0 1-.9-.874.934.934 0 0 1 .135-.551.786.786 0 0 0 .016-.794.778.778 0 0 0-.678-.4H8.469V5.957a1.875 1.875 0 1 0 0-3.445V.937h6.437a.156.156 0 0 1 .156.156zM1.094.938h6.437v1.835a.779.779 0 0 0 1.187.664.938.938 0 0 1 1.429.835.938.938 0 0 1-1.425.764.786.786 0 0 0-.794-.016.778.778 0 0 0-.4.678v1.833H5.957a1.875 1.875 0 1 0-3.445 0H.937V1.094a.156.156 0 0 1 .157-.156zM.938 14.906V8.469h1.835a.779.779 0 0 0 .664-1.187.938.938 0 0 1 .835-1.429.944.944 0 0 1 .9.874.934.934 0 0 1-.135.551.786.786 0 0 0-.016.794.778.778 0 0 0 .678.4h1.832v1.574a1.875 1.875 0 1 0 0 3.445v1.575H1.094a.156.156 0 0 1-.156-.156zm13.969.156H8.469v-1.835a.779.779 0 0 0-1.187-.664.938.938 0 0 1-1.429-.835.944.944 0 0 1 .874-.9.935.935 0 0 1 .551.135.786.786 0 0 0 .794.016.778.778 0 0 0 .4-.678V8.469h1.574a1.878 1.878 0 0 0 1.651 2.615h.073a1.876 1.876 0 0 0 1.721-2.617h1.575v6.437a.156.156 0 0 1-.156.156z" class="cls-1"/>
</svg>
