<svg xmlns="http://www.w3.org/2000/svg" width="18.577" height="18.577" viewBox="0 0 18.577 18.577">
    <defs>
        <style>
            .cls-1{fill:#616161}
        </style>
    </defs>
    <g id="support">
        <g id="Group_350" data-name="Group 350">
            <path id="Path_728" d="M15.857 2.721A9.289 9.289 0 1 0 2.721 15.857 9.289 9.289 0 1 0 15.857 2.721zm-.77.77A8.23 8.23 0 0 1 16.5 5.38l-3.054 1.713A4.736 4.736 0 0 0 11.775 5.3l1.5-3.182a8.235 8.235 0 0 1 1.812 1.372zM12.9 9.289a3.614 3.614 0 1 1-3.611-3.614A3.618 3.618 0 0 1 12.9 9.289zm-3.614-8.2a8.194 8.194 0 0 1 3 .564l-1.5 3.18a4.707 4.707 0 0 0-2.935-.023L6.36 1.625a8.2 8.2 0 0 1 2.929-.537zm-5.8 2.4a8.232 8.232 0 0 1 1.881-1.41l1.499 3.18a4.737 4.737 0 0 0-1.713 1.794L2.1 5.341A8.233 8.233 0 0 1 3.49 3.49zm-2.4 5.8a8.2 8.2 0 0 1 .55-2.959l3.11 1.742a4.71 4.71 0 0 0-.006 2.411l-3.111 1.744a8.2 8.2 0 0 1-.541-2.938zm2.4 5.8a8.235 8.235 0 0 1-1.4-1.869l3.055-1.712A4.737 4.737 0 0 0 6.834 13.3l-1.5 3.18a8.234 8.234 0 0 1-1.844-1.393zm5.8 2.4a8.194 8.194 0 0 1-2.963-.55l1.5-3.183a4.7 4.7 0 0 0 2.931 0l1.5 3.183a8.2 8.2 0 0 1-2.965.55zm5.8-2.4a8.233 8.233 0 0 1-1.852 1.393l-1.5-3.18a4.737 4.737 0 0 0 1.692-1.789l3.055 1.712a8.235 8.235 0 0 1-1.394 1.862zm-1.252-4.6a4.714 4.714 0 0 0 .008-2.373l3.114-1.745a8.263 8.263 0 0 1-.011 5.86z" class="cls-1" data-name="Path 728"/>
        </g>
    </g>
</svg>
