<svg xmlns="http://www.w3.org/2000/svg" width="16" height="16" viewBox="0 0 16 16">
    <defs>
        <style>
            .cls-1{fill:#bcbccb}
        </style>
    </defs>
    <path id="Support_Iocn" d="M8 0a8 8 0 1 0 8 8 8.024 8.024 0 0 0-8-8zm0 10a2 2 0 1 1 2-2 2.006 2.006 0 0 1-2 2zm0-8a5.834 5.834 0 0 1 2.6.6L9.044 4.156a3.591 3.591 0 0 0-2.089 0L5.4 2.6A5.834 5.834 0 0 1 8 2zM2 8a5.834 5.834 0 0 1 .6-2.6l1.556 1.556a3.591 3.591 0 0 0 0 2.089L2.6 10.6A5.834 5.834 0 0 1 2 8zm6 6a5.834 5.834 0 0 1-2.6-.6l1.556-1.556a3.591 3.591 0 0 0 2.089 0L10.6 13.4A5.834 5.834 0 0 1 8 14zm5.4-3.4l-1.556-1.556a3.591 3.591 0 0 0 0-2.089L13.4 5.4a5.933 5.933 0 0 1 0 5.2z" class="cls-1" data-name="Support Iocn"/>
</svg>
