<svg xmlns="http://www.w3.org/2000/svg" width="18.811" height="21.403" viewBox="0 0 18.811 21.403">
    <defs>
        <style>
            .cls-1{fill:#616161}
        </style>
    </defs>
    <g id="user_2_" data-name="user (2)" transform="translate(-31)">
        <g id="Group_341" data-name="Group 341" transform="translate(34.762)">
            <g id="Group_340" data-name="Group 340">
                <path id="Path_709" d="M126.643 0a5.643 5.643 0 1 0 5.643 5.643A5.65 5.65 0 0 0 126.643 0zm0 10.033a4.389 4.389 0 1 1 4.389-4.389 4.394 4.394 0 0 1-4.389 4.389z" class="cls-1" data-name="Path 709" transform="translate(-121)"/>
            </g>
        </g>
        <g id="Group_343" data-name="Group 343" transform="translate(31 12.541)">
            <g id="Group_342" data-name="Group 342">
                <path id="Path_710" d="M47.427 302.433A8.045 8.045 0 0 0 41.66 300h-2.509a8.045 8.045 0 0 0-5.767 2.433 8.224 8.224 0 0 0-2.384 5.8.627.627 0 0 0 .627.627h17.557a.627.627 0 0 0 .627-.627 8.224 8.224 0 0 0-2.384-5.8zm-15.145 5.175a6.94 6.94 0 0 1 6.87-6.354h2.508a6.94 6.94 0 0 1 6.87 6.354z" class="cls-1" data-name="Path 710" transform="translate(-31 -300)"/>
            </g>
        </g>
    </g>
</svg>
