<svg xmlns="http://www.w3.org/2000/svg" id="Component_5_1" width="317.922" height="60.267" data-name="Component 5 – 1" viewBox="0 0 317.922 60.267">
    <defs>
        <style>
            .cls-1,.cls-2{fill:#41b3c4}.cls-1{font-size:45px;font-family:Station-Medium,Station;font-weight:500}.cls-3{fill:#a2dae3}
        </style>
    </defs>
    <g id="Group_38" data-name="Group 38" transform="translate(57.922)">
        <text id="izzElevate.io" class="cls-1" transform="translate(0 47)">
            <tspan x="0" y="0">izzElevate.io</tspan>
        </text>
    </g>
    <g id="Group_37" data-name="Group 37" transform="translate(0 4.191)">
        <g id="Group_41" data-name="Group 41" transform="translate(7.984 .008)">
            <path id="Path_6" d="M210.047 91.243a14.906 14.906 0 0 1-14.9 14.9H174.6V82.957a6.618 6.618 0 0 1 6.617-6.617h13.929a14.911 14.911 0 0 1 14.9 14.9z" class="cls-2" data-name="Path 6" transform="translate(-174.598 -76.34)"/>
            <path id="Path_4" d="M213 165.928a15.464 15.464 0 0 0-11.3-5h-21.117a6.2 6.2 0 0 1-5.982-6.389v34.13a6.2 6.2 0 0 0 5.984 6.389h21.112c8.829 0 15.985-7.64 15.985-17.066A17.6 17.6 0 0 0 213 165.928z" class="cls-2" data-name="Path 4" transform="translate(-174.598 -138.992)"/>
        </g>
        <path id="Path_14" d="M169.913 82.843a19.35 19.35 0 0 1 .342-4.218 3.87 3.87 0 0 1 3.834-2.964c5.689-.043 11.38-.029 17.069-.018.149 0 .363.02.363.02s-2.747 3.314-2.141 5.651a4.768 4.768 0 0 0 4.533 3.586 17.515 17.515 0 0 1 4.461.578 4.2 4.2 0 0 1 2.827 4.749 4.509 4.509 0 0 1-4.428 3.9c-2.459.109-4.928-.007-7.388.087-3.633.139-5.8 3.233-4.574 6.415a4.82 4.82 0 0 0 4.686 2.979c3.754.037 7.508.044 11.261.041a5.079 5.079 0 0 1 4.989 2.865c1.453 3.018-.833 6.421-4.387 6.477-5.512.086-11.027.024-16.54.068-3.039.024-5.01 1.846-5.05 4.556a4.506 4.506 0 0 0 4.688 4.7c1.581.062 3.168-.02 4.75.031a5 5 0 0 1 4.977 4.777c-.023 2.664-2.047 4.54-5.023 4.56-4.809.033-14.1.023-18.906 0-2.707-.01-.381-44.031-.343-48.84z" class="cls-3" data-name="Path 14" transform="translate(-168.947 -75.631)"/>
    </g>
</svg>
