<svg xmlns="http://www.w3.org/2000/svg" xmlns:xlink="http://www.w3.org/1999/xlink" width="339.734" height="195.774" viewBox="0 0 339.734 195.774">
    <defs>
        <style>
            .cls-1,.cls-10,.cls-2,.cls-9{fill:#41b3c4}.cls-1{opacity:.5}.cls-3,.cls-8{fill:none;stroke:#535461;stroke-miterlimit:10}.cls-4{opacity:.1}.cls-5{fill:url(#linear-gradient)}.cls-6{fill:#535461}.cls-7{fill:#fff}.cls-8{stroke-width:2px}.cls-9{opacity:.7}.cls-10{opacity:.8}.cls-11{fill:url(#linear-gradient-2)}.cls-12{fill:#fec3be}.cls-13{fill:#8b416f}.cls-14{fill:#4d4981}.cls-15{opacity:.05}.cls-16{fill:#fd6f8d}.cls-17{fill:#784f69}
        </style>
        <linearGradient id="linear-gradient" x1=".5" x2=".5" y1="1" gradientUnits="objectBoundingBox">
            <stop offset="0" stop-color="gray" stop-opacity=".251"/>
            <stop offset=".54" stop-color="gray" stop-opacity=".122"/>
            <stop offset="1" stop-color="gray" stop-opacity=".102"/>
        </linearGradient>
        <linearGradient id="linear-gradient-2" y1="1" xlink:href="#linear-gradient"/>
    </defs>
    <g id="undraw_finance_0bdk" transform="translate(-.003 -.06)">
        <path id="Path_181" d="M211.488 520.1c-20.54-7.1-44.026-13.1-63.217-2.906-2.432 1.293-4.829 2.92-6.139 5.342-3.461 6.371 2.04 14.633-.641 21.367s-12.774 10.124-11.947 17.318a10.039 10.039 0 0 0 2.436 5.05c7.517 9.184 21.3 10.114 32.947 7.834s23.04-7 34.9-6.41c11.4.588 21.879 6.054 32.32 10.655 17.6 7.777 38.161 13.358 55.749 5.541 8.059-3.582 14.722-9.683 22.435-13.942a55.218 55.218 0 0 1 34.08-6.253c7.834 1.1 15.313 3.882 22.98 5.8 17.414 4.348 35.59 4.206 53.534 4.035a35.868 35.868 0 0 0 9.935-1.026c4.74-1.424 8.65-4.7 12.414-7.913 4.946-4.213 10.156-8.842 11.752-15.142 1.884-7.478-2.016-15.427-7.8-20.508s-13.176-7.859-20.391-10.537c-1.781-.655-3.682-1.321-5.505-.826a7.509 7.509 0 0 0-3.1 1.984c-5.121 4.929-9.448 13.265-16.431 11.926-2.493-.477-4.533-2.211-6.506-3.814-10.534-8.547-24.7-15.145-37.416-10.423-9.3 3.454-15.861 12.325-25.284 15.455-6.7 2.229-13.984 1.264-21.035 1.7-10.256.627-20.238 4.252-30.508 4.031-26.188-.563-48.007-25.6-74.089-23.218-2.044.185-4.273.655-5.527 2.272" class="cls-1" data-name="Path 181" transform="translate(-127.18 -391.82)"/>
        <path id="Path_182" d="M256.349 464.929s-21.762 13.137 18.368 33.371c0 0 8.842-16.417-.933-29.8a13.176 13.176 0 0 0-17.093-3.746z" class="cls-2" data-name="Path 182" transform="translate(-205.067 -360.472)"/>
        <path id="Path_183" d="M267.73 467.52s18.632 14.244 18.112 33.635" class="cls-3" data-name="Path 183" transform="translate(-216.188 -363.337)"/>
        <path id="Path_184" d="M932.3 396.04c4.409 16.121-14.4 62.049-14.4 62.049s-39.571-29.96-43.983-46.081a30.269 30.269 0 1 1 58.383-15.971z" class="cls-2" data-name="Path 184" transform="translate(-605.693 -302.527)"/>
        <path id="Path_185" d="M932.3 396.04c4.409 16.121-14.4 62.049-14.4 62.049s-39.571-29.96-43.983-46.081a30.269 30.269 0 1 1 58.383-15.971z" class="cls-4" data-name="Path 185" transform="translate(-605.693 -302.527)"/>
        <path id="Path_186" d="M936.21 378.27s24.632 37.185 22.79 83.251" class="cls-3" data-name="Path 186" transform="translate(-646.616 -305.87)"/>
        <path id="Path_187" d="M1022.08 517.587s-22.335-12.15-19.508 32.7c0 0 18.632-.666 25.245-15.865a13.176 13.176 0 0 0-5.409-16.648z" class="cls-2" data-name="Path 187" transform="translate(-689.187 -394.609)"/>
        <path id="Path_188" d="M1022.894 520.52s-2.884 23.282-19.875 32.623" class="cls-3" data-name="Path 188" transform="translate(-689.634 -397.463)"/>
        <path id="Path_189" d="M128.9 502.873s-21.773 13.133 18.361 33.357c0 0 8.842-16.417-.933-29.8a13.176 13.176 0 0 0-17.093-3.746z" class="cls-2" data-name="Path 189" transform="translate(-123 -384.895)"/>
        <path id="Path_190" d="M140.26 505.49s18.632 14.244 18.112 33.635" class="cls-3" data-name="Path 190" transform="translate(-134.111 -387.786)"/>
        <path id="Path_191" d="M469.523 345.881h-22.88a7.629 7.629 0 0 0 .8-3.408V238.29a7.66 7.66 0 0 0-7.66-7.66h-177.1a7.66 7.66 0 0 0-7.66 7.66v104.187a7.627 7.627 0 0 0 .8 3.408h-23.697a2.026 2.026 0 0 0-2.026 2.037v1.635a11.331 11.331 0 0 0 11.331 11.331h218.787a11.331 11.331 0 0 0 11.331-11.331v-1.635a2.026 2.026 0 0 0-2.026-2.04zm-140.98 6.481l-1.973-2.226h48.709l-2.172 2.229z" class="cls-5" data-name="Path 191" transform="translate(-191.958 -210.806)"/>
        <rect id="Rectangle_656" width="188.069" height="116.8" class="cls-6" data-name="Rectangle 656" rx="23.26" transform="translate(65.227 21.298)"/>
        <path id="Rectangle_657" d="M0 0h179.753v95.42H0z" class="cls-7" data-name="Rectangle 657" transform="translate(69.187 38.324)"/>
        <circle id="Ellipse_20" cx="1.585" cy="1.585" r="1.585" class="cls-7" data-name="Ellipse 20" transform="translate(157.481 28.424)"/>
        <path id="Path_192" d="M383.721 551.08l-6.175 6.335h-43.538l-5.58-6.335H239.76a1.98 1.98 0 0 0-1.98 1.98v1.6a11.075 11.075 0 0 0 11.075 11.075h213.83a11.075 11.075 0 0 0 11.075-11.075v-1.6a1.98 1.98 0 0 0-1.98-1.98z" class="cls-6" data-name="Path 192" transform="translate(-196.904 -417.141)"/>
        <path id="Path_193" d="M258.77 124.19v81.165h134.218" class="cls-8" data-name="Path 193" transform="translate(-166.617 -79.926)"/>
        <path id="Rectangle_658" d="M0 0h13.856v21.381H0z" class="cls-1" data-name="Rectangle 658" transform="translate(104.029 100.882)"/>
        <path id="Rectangle_659" d="M0 0h13.856v40.386H0z" class="cls-9" data-name="Rectangle 659" transform="translate(127.785 81.876)"/>
        <path id="Rectangle_660" d="M0 0h13.856v28.902H0z" class="cls-1" data-name="Rectangle 660" transform="translate(151.541 93.357)"/>
        <path id="Rectangle_661" d="M0 0h13.856v46.722H0z" class="cls-10" data-name="Rectangle 661" transform="translate(175.297 75.541)"/>
        <path id="Rectangle_662" d="M0 0h13.856v63.348H0z" class="cls-2" data-name="Rectangle 662" transform="translate(199.053 58.911)"/>
        <path id="Path_194" d="M311.02 181.341l24.151-21.776 23.756 20.587 23.361-24.942 23.756-9.9" class="cls-8" data-name="Path 194" transform="translate(-200.261 -93.525)"/>
        <circle id="Ellipse_21" cx="2.771" cy="2.771" r="2.771" class="cls-2" data-name="Ellipse 21" transform="translate(107.989 85.046)"/>
        <circle id="Ellipse_22" cx="2.771" cy="2.771" r="2.771" class="cls-2" data-name="Ellipse 22" transform="translate(155.501 83.461)"/>
        <circle id="Ellipse_23" cx="2.771" cy="2.771" r="2.771" class="cls-2" data-name="Ellipse 23" transform="translate(179.652 58.914)"/>
        <circle id="Ellipse_24" cx="2.771" cy="2.771" r="2.771" class="cls-2" data-name="Ellipse 24" transform="translate(132.14 62.871)"/>
        <circle id="Ellipse_25" cx="2.771" cy="2.771" r="2.771" class="cls-2" data-name="Ellipse 25" transform="translate(203.013 49.014)"/>
        <path id="Path_195" d="M843.643 312.478a13.89 13.89 0 0 0-5.342-.84 27.2 27.2 0 0 1-8.1-4.458 58.441 58.441 0 0 0-.174-6.844C828.683 285.068 831.7 275 831.7 275s2.372-7.678 2.112-14.049c.153.288.239.459.239.459a47.3 47.3 0 0 1 3.483-14.725 1.184 1.184 0 0 0 .157-.057l1.567-3.718a3.224 3.224 0 0 0 .3-.687l.253-.588-.075-.032.075-.3c1-4.234 1.781-14.276 1.781-14.276a18.589 18.589 0 0 0-3.689-17.093l-10.819-9.309a1.371 1.371 0 0 1 .107.381l-.089-.078c-.153-.438-.32-.961-.484-1.56a9.146 9.146 0 0 0 3.493-5.242 16.408 16.408 0 0 0 .16-3.917l-.178-4.491a14.244 14.244 0 0 0-.267-2.617c-.815-3.561-4.466-6.054-8.13-6.218a29.714 29.714 0 0 0-3.49.185 23.486 23.486 0 0 1-2.849.061.513.513 0 0 1-.306-.082.448.448 0 0 1-.132-.31 1.545 1.545 0 0 1 .378-1.157 1.424 1.424 0 0 1 .491-.281l-.26.061a1.424 1.424 0 0 1 .427-.231 8.3 8.3 0 0 0-2.7.979 3.484 3.484 0 0 0-.63.531 2.753 2.753 0 0 0-.912 1.7 3.154 3.154 0 0 1-.961-1.424 1.424 1.424 0 0 1 0-.691q-.1.118-.185.242v-.075a7.2 7.2 0 0 0-1.424 2.9 1.129 1.129 0 0 1-.256-.833q-.08.251-.15.5a1.165 1.165 0 0 1 0-.335 11.469 11.469 0 0 0-.559 3.981c0 1.346.6 3.444 2.04 3.917.075.025.15.043.228.061a9.056 9.056 0 0 0 6.107 13.831q.036.246.068.516h.057c.039.356.071.748.093 1.147a7.715 7.715 0 0 1-1.189.954 9.808 9.808 0 0 1-3.96 1.311 11.788 11.788 0 0 0-4.761 1.424c-1.727.965-3.632 2.372-4.231 4.081-1 2.849-6.488 7.282-10.17 7.834l-1.31-.075-.1-.028v.025l-.321-.018h-.1v.018l-.331-.018s-.032.153-.078.424c-1.852-.637-5.787-2.4-10.908-7.051-5.7-5.174-13.408-4.156-16.381-3.5a.509.509 0 0 0-.135.944 16.535 16.535 0 0 0 3.917 1.724s-1.781 1.862.114 2.849a1.375 1.375 0 0 0 1.424-.139c.919-.673 3.472.851 7.172 1.645 0 0 10.441 10.8 15.626 12.464a7.461 7.461 0 0 0 .4.687l.32-.025v.025h.135l.039.356s8.062-.424 10.683-3.351a4.2 4.2 0 0 0 .509-.545l-2.8 35.255h.025l-.025.335h2.062a77.717 77.717 0 0 1-.559 12.984v22.983s-.107 2.023 4.1 4.986a157.065 157.065 0 0 1 12.72 9.861l.509.442c-.773 7.033-2.389 20.142-3.739 20.629l.833.146c-1.424 1.805-5.47 6.766-6.7 6.9-1.51.167-2.518 2.518 0 3.02a28.207 28.207 0 0 0 14.957-1.474 2.283 2.283 0 0 0 1.424-2.429l-.488-3.7a.52.52 0 0 1 .214.224c.335 1.008 0-1.343 0-1.343a104.97 104.97 0 0 0 3.244-13.532l4.986 4.309s.1-.125.274-.356c1.221 2.771 3.4 8.44 2.913 12.592-.669 5.7 5.7.669 5.032-2.685-.541-2.714 1.88-14.216 2.824-18.518a1.912 1.912 0 0 0-1.282-2.229z" class="cls-11" data-name="Path 195" transform="translate(-534.784 -175.07)"/>
        <path id="Path_196" d="M793.058 279.312s-4.751-.819-11.794-7.208c-5.573-5.053-13.091-4.06-15.989-3.422a.495.495 0 0 0-.132.919 16.19 16.19 0 0 0 3.839 1.684s-1.756 1.816.11 2.788a1.343 1.343 0 0 0 1.4-.135c.9-.655 3.39.833 7 1.606 0 0 14.088 14.579 17.364 12.108z" class="cls-12" data-name="Path 196" transform="translate(-536.301 -234.966)"/>
        <path id="Path_197" d="M912.11 231.094s1.31 5.57 0 9.5l5.9.819 5.242-2.621v-3.44a23.623 23.623 0 0 1-1.8-11.3z" class="cls-12" data-name="Path 197" transform="translate(-631.098 -206.569)"/>
        <path id="Path_198" d="M959 565.106s4.273 8.354 3.6 13.924 5.57.655 4.914-2.621c-.531-2.649 1.834-13.888 2.756-18.069a1.866 1.866 0 0 0-1.239-2.176c-1.969-.648-5.267-1.442-6.923-.228-2.442 1.799-3.108 9.17-3.108 9.17z" class="cls-13" data-name="Path 198" transform="translate(-661.29 -419.86)"/>
        <path id="Path_199" d="M898.048 607.7s-5.57 7.208-7.044 7.371-2.457 2.457 0 2.949a27.541 27.541 0 0 0 14.6-1.424 2.229 2.229 0 0 0 1.4-2.372l-.94-7.015z" class="cls-13" data-name="Path 199" transform="translate(-616.544 -453.282)"/>
        <path id="Path_200" d="M877.955 393.78l-5.342.712a78.18 78.18 0 0 1-.064 18.778v22.43s-.1 1.976 4 4.85a153.377 153.377 0 0 1 12.421 9.615l14.864 12.877s5.9-7.208 5.078-11.467c0 0-9.829-3.112-11.139-8.191-.751-2.906-4.562-5.342-7.681-6.873a9.551 9.551 0 0 1-5.11-10.84 8.356 8.356 0 0 1 .837-2.1c2.621-4.587 6.389-14.907 6.389-14.907L885 394.927z" class="cls-14" data-name="Path 200" transform="translate(-605.625 -315.857)"/>
        <path id="Path_201" d="M877.955 393.78l-5.342.712a78.18 78.18 0 0 1-.064 18.778v22.43s-.1 1.976 4 4.85a153.377 153.377 0 0 1 12.421 9.615l14.864 12.877s5.9-7.208 5.078-11.467c0 0-9.829-3.112-11.139-8.191-.751-2.906-4.562-5.342-7.681-6.873a9.551 9.551 0 0 1-5.11-10.84 8.356 8.356 0 0 1 .837-2.1c2.621-4.587 6.389-14.907 6.389-14.907L885 394.927z" class="cls-15" data-name="Path 201" transform="translate(-605.625 -315.857)"/>
        <path id="Path_202" d="M900.358 470.89s9.665 1.638 9.992 2.621 0-1.31 0-1.31 5.57-16.872 4.273-31.776 1.638-24.735 1.638-24.735 3.44-11.139 1.474-17.528-22.606-3.6-22.606-3.6 7.208 16.872 7.044 24.9c0 0 .819 24.244 2.293 27.029-.013-.02-2.306 23.733-4.108 24.399z" class="cls-14" data-name="Path 202" transform="translate(-620.165 -315.968)"/>
        <path id="Path_203" d="M886.663 255.79s.983 6.054 10.811 3.44l-6.538 49.795s-19 .655-18.838-1.638l3.917-30.138z" class="cls-7" data-name="Path 203" transform="translate(-605.334 -227.006)"/>
        <path id="Path_204" d="M868.255 254.87a7.983 7.983 0 0 1-4.733 2.247 11.513 11.513 0 0 0-4.651 1.382c-1.684.944-3.561 2.315-4.131 3.985-1.147 3.276-8.354 8.682-11.631 7.535l1.147 9.829s9.337-.491 10.975-4.1l-2.781 35.073h2.457s1.31-9.5 2.293-11.467 2.949-12.777 3.112-15.4 2.621-17.691 4.75-20.3l3.2-7.781z" class="cls-4" data-name="Path 204" transform="translate(-586.67 -226.414)"/>
        <path id="Path_205" d="M867.669 256.25a10.138 10.138 0 0 1-5.06 2.083 11.514 11.514 0 0 0-4.647 1.389c-1.684.944-3.561 2.315-4.131 3.985-1.147 3.276-8.354 8.682-11.63 7.535l1.147 9.829s9.337-.491 10.975-4.1l-2.785 35.052h2.457s1.31-9.5 2.293-11.467 2.949-12.777 3.112-15.4 2.621-17.692 4.75-20.3l3.518-7.635z" class="cls-4" data-name="Path 205" transform="translate(-586.084 -227.302)"/>
        <path id="Path_206" d="M867.663 255.33a10.138 10.138 0 0 1-5.06 2.083 11.512 11.512 0 0 0-4.651 1.382c-1.684.944-3.561 2.315-4.131 3.985-1.147 3.276-8.354 8.682-11.631 7.535l1.147 9.829s9.337-.491 10.975-4.1l-2.781 35.073h2.457s1.31-9.5 2.293-11.467 2.949-12.777 3.112-15.4 2.621-17.692 4.751-20.3l3.522-7.617z" class="cls-16" data-name="Path 206" transform="translate(-586.077 -226.71)"/>
        <path id="Path_207" d="M921.038 229.771c-.214-1.553.214-2.521.409-4.341l-9.337 7.044s.224.951.4 2.343a8.9 8.9 0 0 0 1.424.114c3.236 0 5.566-2.531 7.104-5.16z" class="cls-4" data-name="Path 207" transform="translate(-631.098 -207.458)"/>
        <circle id="Ellipse_26" cx="8.846" cy="8.846" r="8.846" class="cls-12" data-name="Ellipse 26" transform="translate(273.968 9.294)"/>
        <path id="Path_208" d="M890.045 188.659a11.2 11.2 0 0 1 .712-4.377 1.093 1.093 0 0 0 .185 1.424 7.008 7.008 0 0 1 2.222-3.939 1.2 1.2 0 0 0-.8 1.5 3.419 3.419 0 0 0 1.093 1.538 2.748 2.748 0 0 1 1.35-2.325 8.1 8.1 0 0 1 2.635-.954 1.528 1.528 0 0 0-1.011 1.567.437.437 0 0 0 .132.3.5.5 0 0 0 .3.078 22.927 22.927 0 0 0 2.767-.061 29.017 29.017 0 0 1 3.408-.182c3.561.15 7.14 2.582 7.938 6.054a13.918 13.918 0 0 1 .26 2.557l.175 4.384a16.025 16.025 0 0 1-.157 3.832 8.119 8.119 0 0 1-4.17 5.513c-1.286-1.862-1.4-4.256-1.845-6.474a3.276 3.276 0 0 0-.556-1.424 1.25 1.25 0 0 0-1.371-.463.787.787 0 0 0-.289 1.254c-.356.42-1.022.107-1.424-.267a7.648 7.648 0 0 1-2.218-3.963c-.16-.762-.321-1.7-1.068-1.962a1.987 1.987 0 0 0-.791-.053c-1.56.107-4 .751-5.509.256-1.384-.447-1.968-2.499-1.968-3.813z" class="cls-4" data-name="Path 208" transform="translate(-616.886 -179.191)"/>
        <path id="Path_209" d="M890.505 188.2a11.2 11.2 0 0 1 .712-4.377 1.093 1.093 0 0 0 .185 1.424 7.009 7.009 0 0 1 2.222-3.939 1.2 1.2 0 0 0-.8 1.5 3.419 3.419 0 0 0 1.093 1.538 2.748 2.748 0 0 1 1.35-2.325 8.1 8.1 0 0 1 2.635-.954 1.528 1.528 0 0 0-1.011 1.567.438.438 0 0 0 .132.3.5.5 0 0 0 .3.078 22.928 22.928 0 0 0 2.767-.061 29.026 29.026 0 0 1 3.408-.182c3.561.15 7.14 2.582 7.938 6.054a13.918 13.918 0 0 1 .26 2.557l.175 4.384a16.022 16.022 0 0 1-.157 3.832 8.119 8.119 0 0 1-4.17 5.513c-1.286-1.862-1.4-4.256-1.845-6.474a3.276 3.276 0 0 0-.556-1.424 1.25 1.25 0 0 0-1.371-.463.787.787 0 0 0-.289 1.254c-.356.42-1.022.107-1.424-.267a7.649 7.649 0 0 1-2.219-3.963c-.16-.762-.321-1.7-1.068-1.962a1.987 1.987 0 0 0-.791-.053c-1.56.107-4 .751-5.509.256-1.383-.452-1.967-2.5-1.967-3.813z" class="cls-17" data-name="Path 209" transform="translate(-617.182 -178.895)"/>
        <path id="Path_210" d="M840.369 297.42s-1.311 6.054 1.147 9.829l1.392-.114-.758-9.615z" class="cls-4" data-name="Path 210" transform="translate(-584.68 -253.811)"/>
        <path id="Path_211" d="M841.369 297.42s-1.31 6.054 1.147 9.829l1.392-.114-.759-9.615z" class="cls-16" data-name="Path 211" transform="translate(-585.324 -253.811)"/>
        <path id="Path_212" d="M920.268 251l10.566 9.091a18.2 18.2 0 0 1 3.6 16.709s-1.147 15.071-2.457 15.726c0 0-4.587 9.173-4.914 17.855 0 0-6.143-12.368-8.928-4.832s-9.259 8.6-9.259 8.6l3.6-44.571s9.103-15.807 7.792-18.578z" class="cls-4" data-name="Path 212" transform="translate(-629.018 -223.922)"/>
        <path id="Path_213" d="M921.188 251l10.566 9.091a18.2 18.2 0 0 1 3.6 16.709s-1.147 15.071-2.457 15.726c0 0-4.587 9.173-4.914 17.855 0 0-6.471-13.023-9.259-5.488s-8.928 9.259-8.928 9.259l3.6-44.553s9.104-15.828 7.792-18.599z" class="cls-16" data-name="Path 213" transform="translate(-629.611 -223.922)"/>
        <path id="Path_214" d="M942.466 358.247s2.621-1.8 6.88 3.112l-10.484 19-3.522-5.317s7.453-14.666 7.126-16.795z" class="cls-12" data-name="Path 214" transform="translate(-646.056 -292.769)"/>
        <path id="Path_215" d="M948.22 356.785s5.8 6.51 8.059 5.466l2.094-4.875-7.86-3.376z" class="cls-4" data-name="Path 215" transform="translate(-654.349 -290.243)"/>
        <path id="Path_216" d="M948.22 355.865s5.8 6.51 8.059 5.466l2.094-4.875-7.859-3.376z" class="cls-16" data-name="Path 216" transform="translate(-654.349 -289.65)"/>
        <path id="Path_217" d="M934.5 402.51s2.76 5.655 4.231 5.983l-2.137 2.457-3.112-5.9z" class="cls-4" data-name="Path 217" transform="translate(-644.858 -321.478)"/>
        <path id="Path_218" d="M934.026 403s2.76 5.655 4.231 5.983l-2.137 2.457-3.12-5.908z" class="cls-14" data-name="Path 218" transform="translate(-644.549 -321.793)"/>
        <path id="Path_219" d="M948.743 304.78s.328 11.794-.983 16.217" class="cls-4" data-name="Path 219" transform="translate(-654.053 -258.55)"/>
        <path id="Path_220" d="M876 307.073s1.966-.655 1.966-2.293" class="cls-4" data-name="Path 220" transform="translate(-607.847 -258.55)"/>
        <path id="Path_221" d="M196.122 316.76a66.085 66.085 0 0 0-3.2 42.174c6.132 22.859 4.184 50.211-1.93 56.978" class="cls-8" data-name="Path 221" transform="translate(-166.674 -266.264)"/>
        <circle id="Ellipse_27" cx="2.575" cy="2.575" r="2.575" class="cls-2" data-name="Ellipse 27" transform="translate(26.874 47.925)"/>
        <path id="Path_222" d="M194.79 348.431s9.679 1.745 12.254-1.781" class="cls-8" data-name="Path 222" transform="translate(-169.223 -285.51)"/>
        <path id="Path_223" d="M182.239 348.766s-5.822-6.442-5.5-10.306" class="cls-8" data-name="Path 223" transform="translate(-157.59 -280.237)"/>
        <path id="Path_224" d="M190.82 384.443s5.3 1.4 10.128-8.9" class="cls-8" data-name="Path 224" transform="translate(-166.667 -304.112)"/>
        <path id="Path_225" d="M173.625 399.419s-13.176-8.479-11.57-13.949" class="cls-8" data-name="Path 225" transform="translate(-148.057 -310.506)"/>
        <path id="Path_226" d="M200.57 422.509s9.23-8.19 8.265-16.249" class="cls-8" data-name="Path 226" transform="translate(-172.944 -323.892)"/>
        <path id="Path_227" d="M182.771 452.663s-11.752-3.283-11.4-8.433" class="cls-8" data-name="Path 227" transform="translate(-154.141 -348.341)"/>
        <path id="Path_228" d="M205.69 467.039s7.4-6.859 8.369-11.039" class="cls-8" data-name="Path 228" transform="translate(-176.241 -355.919)"/>
        <path id="Path_229" d="M192.82 495.572s-7.6-8.867-7.92-13.372" class="cls-8" data-name="Path 229" transform="translate(-162.855 -372.789)"/>
        <path id="Path_230" d="M207.14 515.139s8.5-9.444 9.141-13.949" class="cls-8" data-name="Path 230" transform="translate(-177.175 -385.017)"/>
        <circle id="Ellipse_28" cx="2.575" cy="2.575" r="2.575" class="cls-2" data-name="Ellipse 28" transform="translate(16.572 56.293)"/>
        <circle id="Ellipse_29" cx="2.575" cy="2.575" r="2.575" class="cls-2" data-name="Ellipse 29" transform="translate(13.677 93.314)"/>
        <circle id="Ellipse_30" cx="2.575" cy="2.575" r="2.575" class="cls-2" data-name="Ellipse 30" transform="translate(11.423 72.389)"/>
        <circle id="Ellipse_31" cx="2.575" cy="2.575" r="2.575" class="cls-2" data-name="Ellipse 31" transform="translate(35.246 58.547)"/>
        <circle id="Ellipse_32" cx="2.575" cy="2.575" r="2.575" class="cls-2" data-name="Ellipse 32" transform="translate(35.246 98.143)"/>
        <circle id="Ellipse_33" cx="2.575" cy="2.575" r="2.575" class="cls-2" data-name="Ellipse 33" transform="translate(31.062 68.85)"/>
        <circle id="Ellipse_34" cx="2.575" cy="2.575" r="2.575" class="cls-2" data-name="Ellipse 34" transform="translate(36.211 115.208)"/>
        <circle id="Ellipse_35" cx="2.575" cy="2.575" r="2.575" class="cls-2" data-name="Ellipse 35" transform="translate(18.826 108.446)"/>
        <circle id="Ellipse_36" cx="2.575" cy="2.575" r="2.575" class="cls-2" data-name="Ellipse 36" transform="translate(33.637 79.793)"/>
    </g>
</svg>
